<?xml version="1.0" standalone="no"?>
<svg xmlns="http://www.w3.org/2000/svg" viewBox="0 0 101.646 36" width="101.646" height="36"><g fill="#00936f" color="#00936f" transform="translate(0 6) scale(0.4444445)"><svg width="48.0" height="54.0" x="0.0" y="0.0" viewBox="0 0 48 54"><path fill="currentColor" fill-rule="evenodd" d="M45.692 20.235c-.178.534-.593 1.484-.712 1.662-.06.06-.178.178-.356 0-.534-.594-1.246-1.306-1.78-1.9-.119-.118-.178-.355-.06-.533.238-.475.475-1.128.653-1.602 0 0 0-.06.06-.06 0 0 .118-.178.296 0 2.018 2.196 2.018 2.196 1.9 2.433m-1.484 3.205l-.475.771c-.771 1.246-.771 1.246-1.068 1.068-.534-.593-1.246-1.305-1.78-1.899-.119-.118-.119-.356 0-.534.178-.296.415-.653.593-1.009.594-1.068.594-1.068.83-.83.594.652 1.247 1.246 1.781 1.899.178.118.237.296.119.534m-2.196 3.382c-.297.356-.653.83-.95 1.187-.652.771-.711.83-.949.593-.534-.593-1.246-1.305-1.78-1.899-.119-.118-.119-.356.06-.534l.474-.593c1.187-1.424 1.187-1.424 1.365-1.246.593.652 1.246 1.187 1.78 1.899.06.178.119.356 0 .593m-2.908 3.264c-2.076 1.899-2.076 1.899-2.373 1.661-.534-.593-1.246-1.305-1.78-1.899-.119-.178-.119-.356.059-.474.534-.475 1.305-1.068 1.78-1.603l.119-.118s.237-.178.475 0c.593.653 1.246 1.187 1.78 1.899.06.118.119.296-.06.534m-3.145 2.61l-.712.475c-1.008.713-1.008.713-1.246.475-.534-.593-1.246-1.305-1.72-1.899-.12-.118-.12-.296.059-.415l.771-.534c.89-.653.89-.653 1.128-.416.593.653 1.246 1.247 1.78 1.9 0 .059.118.237-.06.415m-2.907 1.958l-1.068.653c-.89.534-.89.593-1.128.356-.534-.594-1.246-1.306-1.72-1.9-.12-.118-.12-.296.059-.414l.593-.416c1.306-.83 1.306-.83 1.543-.593.593.652 1.246 1.246 1.78 1.958 0 0 .178.178-.06.356m-3.144 2.018c-.594.415-1.128.89-1.78 1.186 0 0-.238.12-.475-.059-.534-.593-1.246-1.305-1.721-1.899-.119-.119-.119-.297.06-.415 1.957-1.306 1.957-1.306 2.254-1.068.594.652 1.246 1.246 1.78 1.958-.059-.06.12.119-.118.297m-3.264 2.255l-.771.593c-1.187.89-1.187.89-1.425.653-.534-.594-1.246-1.306-1.72-1.9-.12-.177-.12-.355.059-.474l.89-.712c1.009-.771 1.009-.771 1.246-.534.593.653 1.246 1.246 1.78 1.958.119.06.119.238-.059.416m-3.145 2.432l-1.009.95c-.712.712-.771.712-.95.534-.533-.593-1.245-1.305-1.72-1.899-.119-.178-.119-.356 0-.475l.534-.474c1.246-1.187 1.246-1.187 1.543-.95.593.653 1.246 1.246 1.78 1.958 0 .06 0 .238-.178.356m-2.79 2.849c-.414.475-.949 1.127-1.305 1.661l-.059.06s-.178.178-.356 0c-.534-.594-1.246-1.365-1.72-1.9a.445.445 0 0 1 0-.533c1.483-1.958 1.483-1.958 1.72-1.662.593.653 1.246 1.246 1.78 1.958 0-.059.119.178-.06.416m-2.313 3.204l-.95 1.9s0 .058-.06.058c-.059.06-.177.179-.296 0-.534-.593-1.246-1.364-1.72-1.898-.12-.178-.179-.356-.06-.594.83-1.72.83-1.72.95-1.958.059-.06.177-.178.355-.06.594.653 1.247 1.247 1.78 1.959 0 .119.179.297 0 .593M14.124 22.55s-.237.118-.415-.06c-.534-.534-1.187-1.305-1.721-1.899-.119-.118-.06-.296.06-.415 1.957-1.306 1.957-1.306 2.195-1.068.593.652 1.246 1.187 1.72 1.899 0 0 .179.237-.059.415-.593.356-1.127.83-1.78 1.128M12.7 23.558l-.772.534c-1.186.89-1.186.89-1.424.653-.534-.593-1.187-1.305-1.72-1.899-.12-.118-.12-.296.059-.475l.89-.712c1.009-.771 1.009-.771 1.246-.534.593.653 1.246 1.187 1.72 1.9.12.118.238.355 0 .533m-3.085 2.433l-1.009.95c-.712.712-.771.712-.95.534-.533-.594-1.186-1.306-1.72-1.9a.361.361 0 0 1 0-.474l.534-.475c1.246-1.127 1.246-1.127 1.484-.89.593.653 1.246 1.187 1.72 1.9 0-.06.12.118-.059.355m-2.789 2.79c-.415.474-.89 1.127-1.305 1.66l-.06.06s-.178.178-.356 0c-.534-.593-1.187-1.305-1.72-1.899-.12-.118-.12-.356 0-.534 1.483-1.958 1.483-1.958 1.72-1.661.594.652 1.246 1.186 1.721 1.899.06 0 .178.237 0 .474M4.57 31.985c-.296.593-.653 1.305-.89 1.899 0 0 0 .059-.06.059-.059.06-.118.178-.296.06-.534-.594-1.187-1.306-1.72-1.9-.12-.178-.179-.356-.06-.593.771-1.72.771-1.72.95-1.958.059-.06.177-.178.355-.06.594.653 1.187 1.187 1.721 1.9 0 .118.119.296 0 .593m10.682-13.886l.593-.356c1.305-.83 1.305-.83 1.543-.593.593.652 1.246 1.186 1.72 1.898a.23.23 0 0 1-.059.356l-1.008.653c-.831.534-.89.534-1.128.356-.534-.534-1.187-1.305-1.72-1.899-.12-.178-.06-.296.059-.415m3.085-1.958l.772-.534c.89-.653.89-.653 1.127-.416.594.653 1.246 1.187 1.721 1.9.06.118.119.237-.06.355l-.711.475c-1.01.712-1.01.712-1.247.475-.534-.534-1.186-1.306-1.72-1.84-.06-.178 0-.297.118-.415m2.73-2.018c.534-.475 1.246-1.068 1.78-1.602l.119-.119s.237-.178.415 0c.594.653 1.246 1.187 1.721 1.9.06.058.119.296-.06.474-2.076 1.899-2.076 1.899-2.373 1.661a48.81 48.81 0 0 1-1.72-1.84c-.06-.118-.06-.296.118-.474m3.264-3.086l.474-.534c1.128-1.424 1.128-1.424 1.365-1.246.594.653 1.246 1.187 1.721 1.9.06.058.119.296 0 .533-.297.356-.653.83-.95 1.187-.652.771-.711.83-.949.593a48.81 48.81 0 0 1-1.72-1.84c-.06-.237-.06-.415.059-.593m2.551-3.382c.178-.297.416-.653.594-.95.593-1.068.593-1.068.83-.83.594.653 1.247 1.187 1.78 1.899.06.118.12.296.06.534l-.415.771c-.772 1.246-.772 1.246-1.01 1.068A48.81 48.81 0 0 1 27 8.307c-.237-.296-.237-.474-.119-.652m1.78-3.264c.179-.474.475-1.127.653-1.602 0 0 0-.06.06-.06 0 0 .118-.177.296 0 1.959 2.078 1.959 2.078 1.84 2.374-.237.534-.534 1.484-.653 1.662-.06.06-.178.178-.356 0-.534-.594-1.246-1.306-1.72-1.899a.462.462 0 0 1-.12-.475M46.168 18.93c-.06.06-.119.118-.297 0-.534-.594-1.246-1.306-1.78-1.9-.119-.118-.178-.355-.178-.474.06-.297.178-.712.237-1.009L32.103 2.967c-.118.593-.178.772-.178.83 0 .06-.118.12-.296 0a48.81 48.81 0 0 1-1.721-1.839c-.119-.118-.178-.356-.178-.474.059-.238.118-.475.178-.772L29.255 0c-.297 1.662-1.068 3.68-2.374 5.993-.771 1.306-1.424 2.255-2.67 3.798-1.958 2.255-3.323 3.442-5.697 5.163-1.483 1.009-1.483 1.009-3.204 2.077-3.383 2.136-4.035 2.551-6.112 4.035-1.484 1.127-1.9 1.484-3.383 2.789C2.79 26.941.95 29.433 0 34.002l.593.653.297-1.365c.06-.06.178-.119.237-.178.535.594 1.247 1.365 1.78 1.958.179.356.179.356-.177 2.018.83.89 1.899 2.136 2.73 3.026.415.475.949 1.068 1.364 1.543.83.89 1.9 2.136 2.73 3.027.83.89 1.899 2.136 2.73 3.085a74.252 74.252 0 0 1 2.076 2.374l.356-1.424c.06-.06.179-.119.238-.178.534.593 1.305 1.365 1.84 2.017.177.356.177.356-.238 2.018l.771.89c.89-3.68 2.137-6.409 5.994-10.207 1.424-1.246 1.661-1.483 3.382-2.848 2.137-1.602 2.79-2.018 6.112-4.154 1.959-1.246 2.137-1.365 3.264-2.136 1.78-1.246 3.383-2.433 5.756-5.222 1.009-1.246 1.662-2.077 2.73-3.798 1.483-2.551 2.314-4.628 2.61-6.35l-.77-.83c-.179.771-.238.95-.238 1.009"></path></svg></g><path fill="#1c2149" fill-rule="nonzero" d="M6.67 2.57Q4.20 2.57 2.99 3.68Q1.78 4.80 1.78 6.91L1.78 6.91L1.78 9.26L9.79 9.26L9.79 10.80L1.78 10.80L1.78 17.93L0 17.93L0 6.89Q0 4.13 1.73 2.56Q3.46 0.98 6.60 0.98L6.60 0.98Q9.65 0.98 11.50 2.30L11.50 2.30L10.85 3.77Q9.22 2.57 6.67 2.57L6.67 2.57ZM13.75 17.93L13.75 5.30L15.46 5.30L15.46 17.93L13.75 17.93ZM14.62 2.54Q14.09 2.54 13.73 2.18Q13.37 1.82 13.37 1.32L13.37 1.32Q13.37 0.84 13.73 0.48Q14.09 0.12 14.62 0.12L14.62 0.12Q15.14 0.12 15.50 0.47Q15.86 0.82 15.86 1.30L15.86 1.30Q15.86 1.82 15.50 2.18Q15.14 2.54 14.62 2.54L14.62 2.54ZM23.76 18.05Q22.06 18.05 21.13 17.09Q20.21 16.13 20.21 14.42L20.21 14.42L20.21 0.12L21.91 0.12L21.91 14.28Q21.91 15.41 22.44 16.00Q22.97 16.58 24.02 16.58L24.02 16.58Q24.70 16.58 25.18 16.37L25.18 16.37L25.30 17.78Q24.55 18.05 23.76 18.05L23.76 18.05ZM43.37 5.21Q45.74 5.21 47.10 6.58Q48.46 7.94 48.46 10.61L48.46 10.61L48.46 17.93L46.75 17.93L46.75 10.78Q46.75 8.81 45.80 7.78Q44.86 6.74 43.13 6.74L43.13 6.74Q41.16 6.74 40.03 7.96Q38.90 9.17 38.90 11.30L38.90 11.30L38.90 17.93L37.20 17.93L37.20 10.78Q37.20 8.81 36.25 7.78Q35.30 6.74 33.55 6.74L33.55 6.74Q31.61 6.74 30.47 7.96Q29.33 9.17 29.33 11.30L29.33 11.30L29.33 17.93L27.62 17.93L27.62 5.30L29.26 5.30L29.26 7.61Q29.93 6.46 31.13 5.83Q32.33 5.21 33.89 5.21L33.89 5.21Q35.47 5.21 36.64 5.88Q37.80 6.55 38.38 7.87L38.38 7.87Q39.07 6.62 40.38 5.92Q41.69 5.21 43.37 5.21L43.37 5.21ZM56.98 1.44Q55.87 1.44 55.31 2.04Q54.74 2.64 54.74 3.82L54.74 3.82L54.74 5.30L58.63 5.30L58.63 6.74L54.79 6.74L54.79 17.93L53.09 17.93L53.09 3.74Q53.09 2.02 54.08 1.01Q55.08 0 56.90 0L56.90 0Q57.62 0 58.30 0.20Q58.97 0.41 59.42 0.79L59.42 0.79L58.85 2.06Q58.10 1.44 56.98 1.44L56.98 1.44ZM70.61 5.30L72.31 5.30L72.31 16.39Q72.31 19.61 70.85 21.16Q69.38 22.70 66.43 22.70L66.43 22.70Q64.78 22.70 63.30 22.19Q61.82 21.67 60.91 20.76L60.91 20.76L61.78 19.46Q62.59 20.28 63.79 20.74Q64.99 21.19 66.36 21.19L66.36 21.19Q68.54 21.19 69.58 20.08Q70.61 18.96 70.61 16.61L70.61 16.61L70.61 15.14Q69.94 16.25 68.77 16.85Q67.61 17.45 66.14 17.45L66.14 17.45Q63.67 17.45 62.24 16.07Q60.82 14.69 60.82 12.02L60.82 12.02L60.82 5.30L62.52 5.30L62.52 11.86Q62.52 13.85 63.50 14.88Q64.49 15.91 66.31 15.91L66.31 15.91Q68.30 15.91 69.46 14.70Q70.61 13.49 70.61 11.33L70.61 11.33L70.61 5.30Z" transform="translate(29.334, 9.036)"></path></svg>